%TF.GenerationSoftware,KiCad,Pcbnew,8.0.4*%
%TF.CreationDate,2024-09-12T20:09:12-05:00*%
%TF.ProjectId,PCBS 22,50434253-2032-4322-9e6b-696361645f70,rev?*%
%TF.SameCoordinates,Original*%
%TF.FileFunction,Copper,L2,Bot*%
%TF.FilePolarity,Positive*%
%FSLAX46Y46*%
G04 Gerber Fmt 4.6, Leading zero omitted, Abs format (unit mm)*
G04 Created by KiCad (PCBNEW 8.0.4) date 2024-09-12 20:09:12*
%MOMM*%
%LPD*%
G01*
G04 APERTURE LIST*
%TA.AperFunction,NonConductor*%
%ADD10C,0.200000*%
%TD*%
%TA.AperFunction,ComponentPad*%
%ADD11C,1.524000*%
%TD*%
%TA.AperFunction,ComponentPad*%
%ADD12R,1.700000X1.700000*%
%TD*%
%TA.AperFunction,ComponentPad*%
%ADD13O,1.700000X1.700000*%
%TD*%
%TA.AperFunction,Conductor*%
%ADD14C,1.000000*%
%TD*%
%TA.AperFunction,Conductor*%
%ADD15C,0.600000*%
%TD*%
G04 APERTURE END LIST*
D10*
X151000000Y-84000000D02*
X151000000Y-70000000D01*
X95000000Y-84000000D02*
X165000000Y-84000000D01*
X137000000Y-70000000D02*
X137000000Y-84000000D01*
X109000000Y-70000000D02*
X109000000Y-84000000D01*
X123000000Y-84000000D02*
X123000000Y-70000000D01*
X115000000Y-100000000D02*
X115000000Y-84000000D01*
D11*
%TO.P,SW1,1*%
%TO.N,/D1*%
X98500000Y-73000000D03*
%TO.P,SW1,2*%
%TO.N,unconnected-(SW1-Pad2)*%
X105000000Y-73000000D03*
%TO.N,unconnected-(SW1-Pad2)_1*%
X105000000Y-73000000D03*
%TO.N,unconnected-(SW1-Pad2)_2*%
X105000000Y-73000000D03*
%TO.P,SW1,3*%
%TO.N,unconnected-(SW1-Pad3)*%
X98500000Y-77500000D03*
%TO.P,SW1,4*%
%TO.N,GND*%
X105000000Y-77500000D03*
%TD*%
D12*
%TO.P,J1,1,Pin_1*%
%TO.N,/D1*%
X127835000Y-80405000D03*
D13*
%TO.P,J1,2,Pin_2*%
%TO.N,GND*%
X130375000Y-80405000D03*
%TO.P,J1,3,Pin_3*%
X132915000Y-80405000D03*
%TD*%
D11*
%TO.P,SW5,1*%
%TO.N,/D1*%
X154750000Y-72600000D03*
%TO.P,SW5,2*%
%TO.N,unconnected-(SW1-Pad2)*%
X161250000Y-72600000D03*
%TO.N,unconnected-(SW1-Pad2)_1*%
X161250000Y-72600000D03*
%TO.N,unconnected-(SW1-Pad2)_2*%
X161250000Y-72600000D03*
%TO.P,SW5,3*%
%TO.N,unconnected-(SW1-Pad3)*%
X154750000Y-77100000D03*
%TO.P,SW5,4*%
%TO.N,GND*%
X161250000Y-77100000D03*
%TD*%
%TO.P,SW2,1*%
%TO.N,/D1*%
X113000000Y-72750000D03*
%TO.P,SW2,2*%
%TO.N,unconnected-(SW1-Pad2)*%
X119500000Y-72750000D03*
%TO.N,unconnected-(SW1-Pad2)_1*%
X119500000Y-72750000D03*
%TO.N,unconnected-(SW1-Pad2)_2*%
X119500000Y-72750000D03*
%TO.P,SW2,3*%
%TO.N,unconnected-(SW1-Pad3)*%
X113000000Y-77250000D03*
%TO.P,SW2,4*%
%TO.N,GND*%
X119500000Y-77250000D03*
%TD*%
%TO.P,SW6,1*%
%TO.N,/D1*%
X98729671Y-88000000D03*
%TO.P,SW6,2*%
%TO.N,unconnected-(SW2-Pad2)*%
X111229671Y-88000000D03*
%TO.P,SW6,3*%
%TO.N,unconnected-(SW2-Pad3)*%
X98729671Y-93000000D03*
%TO.P,SW6,4*%
%TO.N,GND*%
X111229671Y-93000000D03*
%TD*%
D12*
%TO.P,J1,1,Pin_1*%
%TO.N,/D1*%
X99335000Y-80655000D03*
D13*
%TO.P,J1,2,Pin_2*%
%TO.N,GND*%
X101875000Y-80655000D03*
%TO.P,J1,3,Pin_3*%
X104415000Y-80655000D03*
%TD*%
D11*
%TO.P,SW7,1*%
%TO.N,/D1*%
X119000000Y-87500000D03*
%TO.P,SW7,2*%
%TO.N,unconnected-(SW2-Pad2)*%
X131500000Y-87500000D03*
%TO.P,SW7,3*%
%TO.N,unconnected-(SW2-Pad3)*%
X119000000Y-92500000D03*
%TO.P,SW7,4*%
%TO.N,GND*%
X131500000Y-92500000D03*
%TD*%
%TO.P,SW4,1*%
%TO.N,/D1*%
X140625000Y-72845000D03*
%TO.P,SW4,2*%
%TO.N,unconnected-(SW1-Pad2)*%
X147125000Y-72845000D03*
%TO.N,unconnected-(SW1-Pad2)_1*%
X147125000Y-72845000D03*
%TO.N,unconnected-(SW1-Pad2)_2*%
X147125000Y-72845000D03*
%TO.P,SW4,3*%
%TO.N,unconnected-(SW1-Pad3)*%
X140625000Y-77345000D03*
%TO.P,SW4,4*%
%TO.N,GND*%
X147125000Y-77345000D03*
%TD*%
%TO.P,SW3,1*%
%TO.N,/D1*%
X127000000Y-72750000D03*
%TO.P,SW3,2*%
%TO.N,unconnected-(SW1-Pad2)*%
X133500000Y-72750000D03*
%TO.N,unconnected-(SW1-Pad2)_1*%
X133500000Y-72750000D03*
%TO.N,unconnected-(SW1-Pad2)_2*%
X133500000Y-72750000D03*
%TO.P,SW3,3*%
%TO.N,unconnected-(SW1-Pad3)*%
X127000000Y-77250000D03*
%TO.P,SW3,4*%
%TO.N,GND*%
X133500000Y-77250000D03*
%TD*%
D12*
%TO.P,J2,1,Pin_1*%
%TO.N,/D1*%
X102729671Y-97000000D03*
D13*
%TO.P,J2,2,Pin_2*%
%TO.N,GND*%
X105269671Y-97000000D03*
%TO.P,J2,3,Pin_3*%
X107809671Y-97000000D03*
%TD*%
D12*
%TO.P,J1,1,Pin_1*%
%TO.N,/D1*%
X155585000Y-80255000D03*
D13*
%TO.P,J1,2,Pin_2*%
%TO.N,GND*%
X158125000Y-80255000D03*
%TO.P,J1,3,Pin_3*%
X160665000Y-80255000D03*
%TD*%
D12*
%TO.P,J1,1,Pin_1*%
%TO.N,/D1*%
X141460000Y-80500000D03*
D13*
%TO.P,J1,2,Pin_2*%
%TO.N,GND*%
X144000000Y-80500000D03*
%TO.P,J1,3,Pin_3*%
X146540000Y-80500000D03*
%TD*%
D12*
%TO.P,J3,1,Pin_1*%
%TO.N,/D1*%
X123000000Y-96500000D03*
D13*
%TO.P,J3,2,Pin_2*%
%TO.N,GND*%
X125540000Y-96500000D03*
%TO.P,J3,3,Pin_3*%
X128080000Y-96500000D03*
%TD*%
D12*
%TO.P,J1,1,Pin_1*%
%TO.N,/D1*%
X113835000Y-80405000D03*
D13*
%TO.P,J1,2,Pin_2*%
%TO.N,GND*%
X116375000Y-80405000D03*
%TO.P,J1,3,Pin_3*%
X118915000Y-80405000D03*
%TD*%
D14*
%TO.N,GND*%
X121500000Y-80250000D02*
X121500000Y-77750000D01*
X160665000Y-80255000D02*
X163095000Y-80255000D01*
X116375000Y-80405000D02*
X118915000Y-80405000D01*
X113229671Y-96000000D02*
X113229671Y-94000000D01*
X125540000Y-96500000D02*
X128080000Y-96500000D01*
X147125000Y-77345000D02*
X148625000Y-77345000D01*
X118915000Y-80405000D02*
X121345000Y-80405000D01*
X121000000Y-77250000D02*
X121500000Y-77750000D01*
X148970000Y-80500000D02*
X149125000Y-80345000D01*
X112229671Y-93000000D02*
X111229671Y-93000000D01*
X163095000Y-80255000D02*
X163250000Y-80100000D01*
X132500000Y-96500000D02*
X133500000Y-95500000D01*
X113229671Y-94000000D02*
X112229671Y-93000000D01*
X149125000Y-80345000D02*
X149125000Y-77845000D01*
X133500000Y-95500000D02*
X133500000Y-93500000D01*
X135500000Y-80250000D02*
X135500000Y-77750000D01*
X106500000Y-77500000D02*
X107000000Y-78000000D01*
X133500000Y-93500000D02*
X132500000Y-92500000D01*
X106845000Y-80655000D02*
X107000000Y-80500000D01*
X105269671Y-97000000D02*
X107809671Y-97000000D01*
X132915000Y-80405000D02*
X135345000Y-80405000D01*
X107000000Y-80500000D02*
X107000000Y-78000000D01*
X146540000Y-80500000D02*
X148970000Y-80500000D01*
X162750000Y-77100000D02*
X163250000Y-77600000D01*
X105000000Y-77500000D02*
X106500000Y-77500000D01*
X148625000Y-77345000D02*
X149125000Y-77845000D01*
X121345000Y-80405000D02*
X121500000Y-80250000D01*
X104415000Y-80655000D02*
X106845000Y-80655000D01*
X119500000Y-77250000D02*
X121000000Y-77250000D01*
X158125000Y-80255000D02*
X160665000Y-80255000D01*
X112229671Y-97000000D02*
X113229671Y-96000000D01*
X144000000Y-80500000D02*
X146540000Y-80500000D01*
X163250000Y-80100000D02*
X163250000Y-77600000D01*
X101875000Y-80655000D02*
X104415000Y-80655000D01*
X133500000Y-77250000D02*
X135000000Y-77250000D01*
X132500000Y-92500000D02*
X131500000Y-92500000D01*
X128080000Y-96500000D02*
X132500000Y-96500000D01*
X135000000Y-77250000D02*
X135500000Y-77750000D01*
X161250000Y-77100000D02*
X162750000Y-77100000D01*
X107809671Y-97000000D02*
X112229671Y-97000000D01*
X130375000Y-80405000D02*
X132915000Y-80405000D01*
X135345000Y-80405000D02*
X135500000Y-80250000D01*
D15*
%TO.N,/D1*%
X152750000Y-78600000D02*
X152750000Y-74100000D01*
X154250000Y-72600000D02*
X154750000Y-72600000D01*
X97729671Y-97000000D02*
X96729671Y-96000000D01*
X125000000Y-78750000D02*
X125000000Y-74250000D01*
X102729671Y-97000000D02*
X97729671Y-97000000D01*
X155585000Y-80255000D02*
X154405000Y-80255000D01*
X111000000Y-78750000D02*
X111000000Y-74250000D01*
X118000000Y-96500000D02*
X117000000Y-95500000D01*
X138625000Y-74345000D02*
X140125000Y-72845000D01*
X96729671Y-90000000D02*
X98729671Y-88000000D01*
X125000000Y-74250000D02*
X126500000Y-72750000D01*
X138625000Y-78845000D02*
X138625000Y-74345000D01*
X140280000Y-80500000D02*
X138625000Y-78845000D01*
X98155000Y-80655000D02*
X96500000Y-79000000D01*
X126655000Y-80405000D02*
X125000000Y-78750000D01*
X99335000Y-80655000D02*
X98155000Y-80655000D01*
X141460000Y-80500000D02*
X140280000Y-80500000D01*
X113835000Y-80405000D02*
X112655000Y-80405000D01*
X126500000Y-72750000D02*
X127000000Y-72750000D01*
X154405000Y-80255000D02*
X152750000Y-78600000D01*
X111000000Y-74250000D02*
X112500000Y-72750000D01*
X98000000Y-73000000D02*
X98500000Y-73000000D01*
X112500000Y-72750000D02*
X113000000Y-72750000D01*
X96729671Y-96000000D02*
X96729671Y-90000000D01*
X96500000Y-79000000D02*
X96500000Y-74500000D01*
X140125000Y-72845000D02*
X140625000Y-72845000D01*
X152750000Y-74100000D02*
X154250000Y-72600000D01*
X117000000Y-95500000D02*
X117000000Y-89500000D01*
X127835000Y-80405000D02*
X126655000Y-80405000D01*
X123000000Y-96500000D02*
X118000000Y-96500000D01*
X112655000Y-80405000D02*
X111000000Y-78750000D01*
X96500000Y-74500000D02*
X98000000Y-73000000D01*
X117000000Y-89500000D02*
X119000000Y-87500000D01*
%TD*%
M02*
