M48
; DRILL file {KiCad 8.0.4} date 2024-09-12T20:09:15-0500
; FORMAT={-:-/ absolute / inch / decimal}
; #@! TF.CreationDate,2024-09-12T20:09:15-05:00
; #@! TF.GenerationSoftware,Kicad,Pcbnew,8.0.4
; #@! TF.FileFunction,Plated,1,2,PTH
FMAT,2
INCH
; #@! TA.AperFunction,Plated,PTH,ComponentDrill
T1C0.0300
; #@! TA.AperFunction,Plated,PTH,ComponentDrill
T2C0.0394
%
G90
G05
T1
X3.878Y-2.874
X3.878Y-3.0512
X3.887Y-3.4646
X3.887Y-3.6614
X4.1339Y-2.874
X4.1339Y-2.874
X4.1339Y-2.874
X4.1339Y-3.0512
X4.3791Y-3.4646
X4.3791Y-3.6614
X4.4488Y-2.8642
X4.4488Y-3.0413
X4.685Y-3.4449
X4.685Y-3.6417
X4.7047Y-2.8642
X4.7047Y-2.8642
X4.7047Y-2.8642
X4.7047Y-3.0413
X5.0Y-2.8642
X5.0Y-3.0413
X5.1772Y-3.4449
X5.1772Y-3.6417
X5.2559Y-2.8642
X5.2559Y-2.8642
X5.2559Y-2.8642
X5.2559Y-3.0413
X5.5364Y-2.8679
X5.5364Y-3.0451
X5.7923Y-2.8679
X5.7923Y-2.8679
X5.7923Y-2.8679
X5.7923Y-3.0451
X6.0925Y-2.8583
X6.0925Y-3.0354
X6.3484Y-2.8583
X6.3484Y-2.8583
X6.3484Y-2.8583
X6.3484Y-3.0354
T2
X3.9108Y-3.1754
X4.0108Y-3.1754
X4.0445Y-3.8189
X4.1108Y-3.1754
X4.1445Y-3.8189
X4.2445Y-3.8189
X4.4817Y-3.1656
X4.5817Y-3.1656
X4.6817Y-3.1656
X4.8425Y-3.7992
X4.9425Y-3.7992
X5.0329Y-3.1656
X5.0425Y-3.7992
X5.1329Y-3.1656
X5.2329Y-3.1656
X5.5693Y-3.1693
X5.6693Y-3.1693
X5.7693Y-3.1693
X6.1254Y-3.1596
X6.2254Y-3.1596
X6.3254Y-3.1596
M30
