%TF.GenerationSoftware,KiCad,Pcbnew,8.0.4*%
%TF.CreationDate,2024-09-12T20:09:12-05:00*%
%TF.ProjectId,PCBS 22,50434253-2032-4322-9e6b-696361645f70,rev?*%
%TF.SameCoordinates,Original*%
%TF.FileFunction,Soldermask,Top*%
%TF.FilePolarity,Negative*%
%FSLAX46Y46*%
G04 Gerber Fmt 4.6, Leading zero omitted, Abs format (unit mm)*
G04 Created by KiCad (PCBNEW 8.0.4) date 2024-09-12 20:09:12*
%MOMM*%
%LPD*%
G01*
G04 APERTURE LIST*
%ADD10C,1.524000*%
%ADD11R,1.700000X1.700000*%
%ADD12O,1.700000X1.700000*%
G04 APERTURE END LIST*
D10*
%TO.C,SW1*%
X98500000Y-73000000D03*
X105000000Y-73000000D03*
X105000000Y-73000000D03*
X105000000Y-73000000D03*
X98500000Y-77500000D03*
X105000000Y-77500000D03*
%TD*%
D11*
%TO.C,J1*%
X127835000Y-80405000D03*
D12*
X130375000Y-80405000D03*
X132915000Y-80405000D03*
%TD*%
D10*
%TO.C,SW5*%
X154750000Y-72600000D03*
X161250000Y-72600000D03*
X161250000Y-72600000D03*
X161250000Y-72600000D03*
X154750000Y-77100000D03*
X161250000Y-77100000D03*
%TD*%
%TO.C,SW2*%
X113000000Y-72750000D03*
X119500000Y-72750000D03*
X119500000Y-72750000D03*
X119500000Y-72750000D03*
X113000000Y-77250000D03*
X119500000Y-77250000D03*
%TD*%
%TO.C,SW6*%
X98729671Y-88000000D03*
X111229671Y-88000000D03*
X98729671Y-93000000D03*
X111229671Y-93000000D03*
%TD*%
D11*
%TO.C,J1*%
X99335000Y-80655000D03*
D12*
X101875000Y-80655000D03*
X104415000Y-80655000D03*
%TD*%
D10*
%TO.C,SW7*%
X119000000Y-87500000D03*
X131500000Y-87500000D03*
X119000000Y-92500000D03*
X131500000Y-92500000D03*
%TD*%
%TO.C,SW4*%
X140625000Y-72845000D03*
X147125000Y-72845000D03*
X147125000Y-72845000D03*
X147125000Y-72845000D03*
X140625000Y-77345000D03*
X147125000Y-77345000D03*
%TD*%
%TO.C,SW3*%
X127000000Y-72750000D03*
X133500000Y-72750000D03*
X133500000Y-72750000D03*
X133500000Y-72750000D03*
X127000000Y-77250000D03*
X133500000Y-77250000D03*
%TD*%
D11*
%TO.C,J2*%
X102729671Y-97000000D03*
D12*
X105269671Y-97000000D03*
X107809671Y-97000000D03*
%TD*%
D11*
%TO.C,J1*%
X155585000Y-80255000D03*
D12*
X158125000Y-80255000D03*
X160665000Y-80255000D03*
%TD*%
D11*
%TO.C,J1*%
X141460000Y-80500000D03*
D12*
X144000000Y-80500000D03*
X146540000Y-80500000D03*
%TD*%
D11*
%TO.C,J3*%
X123000000Y-96500000D03*
D12*
X125540000Y-96500000D03*
X128080000Y-96500000D03*
%TD*%
D11*
%TO.C,J1*%
X113835000Y-80405000D03*
D12*
X116375000Y-80405000D03*
X118915000Y-80405000D03*
%TD*%
M02*
