M48
; DRILL file {KiCad 8.0.4} date 2024-09-22T15:15:01-0500
; FORMAT={-:-/ absolute / inch / decimal}
; #@! TF.CreationDate,2024-09-22T15:15:01-05:00
; #@! TF.GenerationSoftware,Kicad,Pcbnew,8.0.4
; #@! TF.FileFunction,Plated,1,2,PTH
FMAT,2
INCH
; #@! TA.AperFunction,Plated,PTH,ViaDrill
T1C0.0256
; #@! TA.AperFunction,Plated,PTH,ComponentDrill
T2C0.0300
; #@! TA.AperFunction,Plated,PTH,ComponentDrill
T3C0.0315
; #@! TA.AperFunction,Plated,PTH,ComponentDrill
T4C0.0394
; #@! TA.AperFunction,Plated,PTH,ComponentDrill
T5C0.0402
; #@! TA.AperFunction,Plated,PTH,ComponentDrill
T6C0.0787
%
G90
G05
T1
X4.4475Y-4.252
X4.7244Y-4.8819
X5.0197Y-4.5866
X5.374Y-4.252
X5.4331Y-5.0591
X5.4528Y-4.3504
X5.5709Y-4.5866
X5.8268Y-4.6457
X6.9291Y-4.5079
X7.0622Y-3.5433
X7.0669Y-4.0551
X7.185Y-4.252
T2
X4.8228Y-2.0606
X4.8228Y-2.1606
X4.8228Y-2.2606
X4.8228Y-2.3606
X4.8228Y-2.4606
X4.8228Y-2.5606
X5.9976Y-4.385
X5.9976Y-4.485
X5.9976Y-4.585
X5.9976Y-4.885
X5.9976Y-4.985
X6.7476Y-4.385
X6.7476Y-4.485
X6.7476Y-4.885
X6.7476Y-4.985
T3
X4.2008Y-4.4685
X4.2008Y-4.5685
X4.5008Y-4.4685
X4.5008Y-4.5685
T4
X5.5693Y-4.1929
X5.6693Y-4.1929
X5.7693Y-4.1929
X5.9535Y-2.185
X6.0535Y-2.185
X6.1535Y-2.185
X6.2535Y-2.185
X6.3535Y-2.185
X6.4535Y-2.185
X6.4843Y-4.2126
X6.5535Y-2.185
X6.5843Y-4.2126
X6.6535Y-2.185
X6.6843Y-4.2126
X6.7843Y-4.2126
X7.0622Y-3.2677
X7.1508Y-4.7047
X7.1622Y-3.2677
X7.2622Y-3.2677
X7.3476Y-4.7047
X7.3622Y-3.2677
X7.4622Y-3.2677
X7.5622Y-3.2677
T5
X5.0795Y-2.9732
X5.0795Y-3.9732
X5.1795Y-2.9732
X5.1795Y-3.9732
X5.2795Y-2.9732
X5.2795Y-3.9732
X5.3795Y-2.9732
X5.3795Y-3.9732
X5.4795Y-2.9732
X5.4795Y-3.9732
X5.5795Y-2.9732
X5.5795Y-3.9732
X5.6795Y-2.9732
X5.6795Y-3.9732
X5.7795Y-2.9732
X5.7795Y-3.9732
X5.8795Y-2.9732
X5.8795Y-3.9732
X5.9795Y-2.9732
X5.9795Y-3.9732
X6.0795Y-2.9732
X6.0795Y-3.9732
X6.1795Y-2.9732
X6.1795Y-3.9732
X6.2795Y-2.9732
X6.2795Y-3.9732
X6.3795Y-2.9732
X6.3795Y-3.9732
X6.4795Y-2.9732
X6.4795Y-3.9732
X7.3409Y-4.1732
X7.4409Y-4.1732
X7.5409Y-4.1732
T6
X4.5079Y-5.4921
X7.3425Y-5.4921
T4
G00X4.3504Y-2.167
M15
G01X4.3504Y-2.2458
M16
G05
G00X4.4291Y-2.3914
M15
G01X4.5079Y-2.3914
M16
G05
G00X4.5866Y-2.167
M15
G01X4.5866Y-2.2458
M16
G05
M30
