%TF.GenerationSoftware,KiCad,Pcbnew,8.0.4*%
%TF.CreationDate,2024-09-22T15:15:57-05:00*%
%TF.ProjectId,PCB 1,50434220-312e-46b6-9963-61645f706362,rev?*%
%TF.SameCoordinates,Original*%
%TF.FileFunction,Legend,Top*%
%TF.FilePolarity,Positive*%
%FSLAX46Y46*%
G04 Gerber Fmt 4.6, Leading zero omitted, Abs format (unit mm)*
G04 Created by KiCad (PCBNEW 8.0.4) date 2024-09-22 15:15:57*
%MOMM*%
%LPD*%
G01*
G04 APERTURE LIST*
%ADD10C,0.150000*%
%ADD11C,0.120000*%
%ADD12C,0.200000*%
%ADD13C,0.127000*%
G04 APERTURE END LIST*
D10*
X148324819Y-106833333D02*
X149039104Y-106833333D01*
X149039104Y-106833333D02*
X149181961Y-106880952D01*
X149181961Y-106880952D02*
X149277200Y-106976190D01*
X149277200Y-106976190D02*
X149324819Y-107119047D01*
X149324819Y-107119047D02*
X149324819Y-107214285D01*
X148324819Y-105928571D02*
X148324819Y-106119047D01*
X148324819Y-106119047D02*
X148372438Y-106214285D01*
X148372438Y-106214285D02*
X148420057Y-106261904D01*
X148420057Y-106261904D02*
X148562914Y-106357142D01*
X148562914Y-106357142D02*
X148753390Y-106404761D01*
X148753390Y-106404761D02*
X149134342Y-106404761D01*
X149134342Y-106404761D02*
X149229580Y-106357142D01*
X149229580Y-106357142D02*
X149277200Y-106309523D01*
X149277200Y-106309523D02*
X149324819Y-106214285D01*
X149324819Y-106214285D02*
X149324819Y-106023809D01*
X149324819Y-106023809D02*
X149277200Y-105928571D01*
X149277200Y-105928571D02*
X149229580Y-105880952D01*
X149229580Y-105880952D02*
X149134342Y-105833333D01*
X149134342Y-105833333D02*
X148896247Y-105833333D01*
X148896247Y-105833333D02*
X148801009Y-105880952D01*
X148801009Y-105880952D02*
X148753390Y-105928571D01*
X148753390Y-105928571D02*
X148705771Y-106023809D01*
X148705771Y-106023809D02*
X148705771Y-106214285D01*
X148705771Y-106214285D02*
X148753390Y-106309523D01*
X148753390Y-106309523D02*
X148801009Y-106357142D01*
X148801009Y-106357142D02*
X148896247Y-106404761D01*
X176504819Y-83333333D02*
X177219104Y-83333333D01*
X177219104Y-83333333D02*
X177361961Y-83380952D01*
X177361961Y-83380952D02*
X177457200Y-83476190D01*
X177457200Y-83476190D02*
X177504819Y-83619047D01*
X177504819Y-83619047D02*
X177504819Y-83714285D01*
X176504819Y-82380952D02*
X176504819Y-82857142D01*
X176504819Y-82857142D02*
X176981009Y-82904761D01*
X176981009Y-82904761D02*
X176933390Y-82857142D01*
X176933390Y-82857142D02*
X176885771Y-82761904D01*
X176885771Y-82761904D02*
X176885771Y-82523809D01*
X176885771Y-82523809D02*
X176933390Y-82428571D01*
X176933390Y-82428571D02*
X176981009Y-82380952D01*
X176981009Y-82380952D02*
X177076247Y-82333333D01*
X177076247Y-82333333D02*
X177314342Y-82333333D01*
X177314342Y-82333333D02*
X177409580Y-82380952D01*
X177409580Y-82380952D02*
X177457200Y-82428571D01*
X177457200Y-82428571D02*
X177504819Y-82523809D01*
X177504819Y-82523809D02*
X177504819Y-82761904D01*
X177504819Y-82761904D02*
X177457200Y-82857142D01*
X177457200Y-82857142D02*
X177409580Y-82904761D01*
X170784819Y-55833333D02*
X171499104Y-55833333D01*
X171499104Y-55833333D02*
X171641961Y-55880952D01*
X171641961Y-55880952D02*
X171737200Y-55976190D01*
X171737200Y-55976190D02*
X171784819Y-56119047D01*
X171784819Y-56119047D02*
X171784819Y-56214285D01*
X171118152Y-54928571D02*
X171784819Y-54928571D01*
X170737200Y-55166666D02*
X171451485Y-55404761D01*
X171451485Y-55404761D02*
X171451485Y-54785714D01*
X133705180Y-57928095D02*
X132895657Y-57928095D01*
X132895657Y-57928095D02*
X132800419Y-57975714D01*
X132800419Y-57975714D02*
X132752800Y-58023333D01*
X132752800Y-58023333D02*
X132705180Y-58118571D01*
X132705180Y-58118571D02*
X132705180Y-58309047D01*
X132705180Y-58309047D02*
X132752800Y-58404285D01*
X132752800Y-58404285D02*
X132800419Y-58451904D01*
X132800419Y-58451904D02*
X132895657Y-58499523D01*
X132895657Y-58499523D02*
X133705180Y-58499523D01*
X133705180Y-58880476D02*
X133705180Y-59499523D01*
X133705180Y-59499523D02*
X133324228Y-59166190D01*
X133324228Y-59166190D02*
X133324228Y-59309047D01*
X133324228Y-59309047D02*
X133276609Y-59404285D01*
X133276609Y-59404285D02*
X133228990Y-59451904D01*
X133228990Y-59451904D02*
X133133752Y-59499523D01*
X133133752Y-59499523D02*
X132895657Y-59499523D01*
X132895657Y-59499523D02*
X132800419Y-59451904D01*
X132800419Y-59451904D02*
X132752800Y-59404285D01*
X132752800Y-59404285D02*
X132705180Y-59309047D01*
X132705180Y-59309047D02*
X132705180Y-59023333D01*
X132705180Y-59023333D02*
X132752800Y-58928095D01*
X132752800Y-58928095D02*
X132800419Y-58880476D01*
X188626666Y-102054819D02*
X188626666Y-102769104D01*
X188626666Y-102769104D02*
X188579047Y-102911961D01*
X188579047Y-102911961D02*
X188483809Y-103007200D01*
X188483809Y-103007200D02*
X188340952Y-103054819D01*
X188340952Y-103054819D02*
X188245714Y-103054819D01*
X189626666Y-103054819D02*
X189055238Y-103054819D01*
X189340952Y-103054819D02*
X189340952Y-102054819D01*
X189340952Y-102054819D02*
X189245714Y-102197676D01*
X189245714Y-102197676D02*
X189150476Y-102292914D01*
X189150476Y-102292914D02*
X189055238Y-102340533D01*
X109176667Y-110797200D02*
X109319524Y-110844819D01*
X109319524Y-110844819D02*
X109557619Y-110844819D01*
X109557619Y-110844819D02*
X109652857Y-110797200D01*
X109652857Y-110797200D02*
X109700476Y-110749580D01*
X109700476Y-110749580D02*
X109748095Y-110654342D01*
X109748095Y-110654342D02*
X109748095Y-110559104D01*
X109748095Y-110559104D02*
X109700476Y-110463866D01*
X109700476Y-110463866D02*
X109652857Y-110416247D01*
X109652857Y-110416247D02*
X109557619Y-110368628D01*
X109557619Y-110368628D02*
X109367143Y-110321009D01*
X109367143Y-110321009D02*
X109271905Y-110273390D01*
X109271905Y-110273390D02*
X109224286Y-110225771D01*
X109224286Y-110225771D02*
X109176667Y-110130533D01*
X109176667Y-110130533D02*
X109176667Y-110035295D01*
X109176667Y-110035295D02*
X109224286Y-109940057D01*
X109224286Y-109940057D02*
X109271905Y-109892438D01*
X109271905Y-109892438D02*
X109367143Y-109844819D01*
X109367143Y-109844819D02*
X109605238Y-109844819D01*
X109605238Y-109844819D02*
X109748095Y-109892438D01*
X110081429Y-109844819D02*
X110319524Y-110844819D01*
X110319524Y-110844819D02*
X110510000Y-110130533D01*
X110510000Y-110130533D02*
X110700476Y-110844819D01*
X110700476Y-110844819D02*
X110938572Y-109844819D01*
X111843333Y-110844819D02*
X111271905Y-110844819D01*
X111557619Y-110844819D02*
X111557619Y-109844819D01*
X111557619Y-109844819D02*
X111462381Y-109987676D01*
X111462381Y-109987676D02*
X111367143Y-110082914D01*
X111367143Y-110082914D02*
X111271905Y-110130533D01*
X102666666Y-141754819D02*
X102333333Y-141278628D01*
X102095238Y-141754819D02*
X102095238Y-140754819D01*
X102095238Y-140754819D02*
X102476190Y-140754819D01*
X102476190Y-140754819D02*
X102571428Y-140802438D01*
X102571428Y-140802438D02*
X102619047Y-140850057D01*
X102619047Y-140850057D02*
X102666666Y-140945295D01*
X102666666Y-140945295D02*
X102666666Y-141088152D01*
X102666666Y-141088152D02*
X102619047Y-141183390D01*
X102619047Y-141183390D02*
X102571428Y-141231009D01*
X102571428Y-141231009D02*
X102476190Y-141278628D01*
X102476190Y-141278628D02*
X102095238Y-141278628D01*
X103095238Y-141231009D02*
X103428571Y-141231009D01*
X103571428Y-141754819D02*
X103095238Y-141754819D01*
X103095238Y-141754819D02*
X103095238Y-140754819D01*
X103095238Y-140754819D02*
X103571428Y-140754819D01*
X104333333Y-141231009D02*
X104000000Y-141231009D01*
X104000000Y-141754819D02*
X104000000Y-140754819D01*
X104000000Y-140754819D02*
X104476190Y-140754819D01*
X105000000Y-140754819D02*
X105000000Y-140992914D01*
X104761905Y-140897676D02*
X105000000Y-140992914D01*
X105000000Y-140992914D02*
X105238095Y-140897676D01*
X104857143Y-141183390D02*
X105000000Y-140992914D01*
X105000000Y-140992914D02*
X105142857Y-141183390D01*
X105761905Y-140754819D02*
X105761905Y-140992914D01*
X105523810Y-140897676D02*
X105761905Y-140992914D01*
X105761905Y-140992914D02*
X106000000Y-140897676D01*
X105619048Y-141183390D02*
X105761905Y-140992914D01*
X105761905Y-140992914D02*
X105904762Y-141183390D01*
X194166666Y-51254819D02*
X193833333Y-50778628D01*
X193595238Y-51254819D02*
X193595238Y-50254819D01*
X193595238Y-50254819D02*
X193976190Y-50254819D01*
X193976190Y-50254819D02*
X194071428Y-50302438D01*
X194071428Y-50302438D02*
X194119047Y-50350057D01*
X194119047Y-50350057D02*
X194166666Y-50445295D01*
X194166666Y-50445295D02*
X194166666Y-50588152D01*
X194166666Y-50588152D02*
X194119047Y-50683390D01*
X194119047Y-50683390D02*
X194071428Y-50731009D01*
X194071428Y-50731009D02*
X193976190Y-50778628D01*
X193976190Y-50778628D02*
X193595238Y-50778628D01*
X194595238Y-50731009D02*
X194928571Y-50731009D01*
X195071428Y-51254819D02*
X194595238Y-51254819D01*
X194595238Y-51254819D02*
X194595238Y-50254819D01*
X194595238Y-50254819D02*
X195071428Y-50254819D01*
X195833333Y-50731009D02*
X195500000Y-50731009D01*
X195500000Y-51254819D02*
X195500000Y-50254819D01*
X195500000Y-50254819D02*
X195976190Y-50254819D01*
X196500000Y-50254819D02*
X196500000Y-50492914D01*
X196261905Y-50397676D02*
X196500000Y-50492914D01*
X196500000Y-50492914D02*
X196738095Y-50397676D01*
X196357143Y-50683390D02*
X196500000Y-50492914D01*
X196500000Y-50492914D02*
X196642857Y-50683390D01*
X197261905Y-50254819D02*
X197261905Y-50492914D01*
X197023810Y-50397676D02*
X197261905Y-50492914D01*
X197261905Y-50492914D02*
X197500000Y-50397676D01*
X197119048Y-50683390D02*
X197261905Y-50492914D01*
X197261905Y-50492914D02*
X197404762Y-50683390D01*
X183248263Y-112261009D02*
X183391120Y-112308628D01*
X183391120Y-112308628D02*
X183438739Y-112356247D01*
X183438739Y-112356247D02*
X183486358Y-112451485D01*
X183486358Y-112451485D02*
X183486358Y-112594342D01*
X183486358Y-112594342D02*
X183438739Y-112689580D01*
X183438739Y-112689580D02*
X183391120Y-112737200D01*
X183391120Y-112737200D02*
X183295882Y-112784819D01*
X183295882Y-112784819D02*
X182914930Y-112784819D01*
X182914930Y-112784819D02*
X182914930Y-111784819D01*
X182914930Y-111784819D02*
X183248263Y-111784819D01*
X183248263Y-111784819D02*
X183343501Y-111832438D01*
X183343501Y-111832438D02*
X183391120Y-111880057D01*
X183391120Y-111880057D02*
X183438739Y-111975295D01*
X183438739Y-111975295D02*
X183438739Y-112070533D01*
X183438739Y-112070533D02*
X183391120Y-112165771D01*
X183391120Y-112165771D02*
X183343501Y-112213390D01*
X183343501Y-112213390D02*
X183248263Y-112261009D01*
X183248263Y-112261009D02*
X182914930Y-112261009D01*
X183819692Y-111784819D02*
X184486358Y-111784819D01*
X184486358Y-111784819D02*
X183819692Y-112784819D01*
X183819692Y-112784819D02*
X184486358Y-112784819D01*
X185391120Y-112784819D02*
X184819692Y-112784819D01*
X185105406Y-112784819D02*
X185105406Y-111784819D01*
X185105406Y-111784819D02*
X185010168Y-111927676D01*
X185010168Y-111927676D02*
X184914930Y-112022914D01*
X184914930Y-112022914D02*
X184819692Y-112070533D01*
X149714285Y-140431009D02*
X149857142Y-140478628D01*
X149857142Y-140478628D02*
X149904761Y-140526247D01*
X149904761Y-140526247D02*
X149952380Y-140621485D01*
X149952380Y-140621485D02*
X149952380Y-140764342D01*
X149952380Y-140764342D02*
X149904761Y-140859580D01*
X149904761Y-140859580D02*
X149857142Y-140907200D01*
X149857142Y-140907200D02*
X149761904Y-140954819D01*
X149761904Y-140954819D02*
X149380952Y-140954819D01*
X149380952Y-140954819D02*
X149380952Y-139954819D01*
X149380952Y-139954819D02*
X149714285Y-139954819D01*
X149714285Y-139954819D02*
X149809523Y-140002438D01*
X149809523Y-140002438D02*
X149857142Y-140050057D01*
X149857142Y-140050057D02*
X149904761Y-140145295D01*
X149904761Y-140145295D02*
X149904761Y-140240533D01*
X149904761Y-140240533D02*
X149857142Y-140335771D01*
X149857142Y-140335771D02*
X149809523Y-140383390D01*
X149809523Y-140383390D02*
X149714285Y-140431009D01*
X149714285Y-140431009D02*
X149380952Y-140431009D01*
X150238095Y-139954819D02*
X150809523Y-139954819D01*
X150523809Y-140954819D02*
X150523809Y-139954819D01*
X151666666Y-140954819D02*
X151095238Y-140954819D01*
X151380952Y-140954819D02*
X151380952Y-139954819D01*
X151380952Y-139954819D02*
X151285714Y-140097676D01*
X151285714Y-140097676D02*
X151190476Y-140192914D01*
X151190476Y-140192914D02*
X151095238Y-140240533D01*
X161384819Y-107333333D02*
X162099104Y-107333333D01*
X162099104Y-107333333D02*
X162241961Y-107380952D01*
X162241961Y-107380952D02*
X162337200Y-107476190D01*
X162337200Y-107476190D02*
X162384819Y-107619047D01*
X162384819Y-107619047D02*
X162384819Y-107714285D01*
X161480057Y-106904761D02*
X161432438Y-106857142D01*
X161432438Y-106857142D02*
X161384819Y-106761904D01*
X161384819Y-106761904D02*
X161384819Y-106523809D01*
X161384819Y-106523809D02*
X161432438Y-106428571D01*
X161432438Y-106428571D02*
X161480057Y-106380952D01*
X161480057Y-106380952D02*
X161575295Y-106333333D01*
X161575295Y-106333333D02*
X161670533Y-106333333D01*
X161670533Y-106333333D02*
X161813390Y-106380952D01*
X161813390Y-106380952D02*
X162384819Y-106952380D01*
X162384819Y-106952380D02*
X162384819Y-106333333D01*
X163545180Y-118238095D02*
X162735657Y-118238095D01*
X162735657Y-118238095D02*
X162640419Y-118285714D01*
X162640419Y-118285714D02*
X162592800Y-118333333D01*
X162592800Y-118333333D02*
X162545180Y-118428571D01*
X162545180Y-118428571D02*
X162545180Y-118619047D01*
X162545180Y-118619047D02*
X162592800Y-118714285D01*
X162592800Y-118714285D02*
X162640419Y-118761904D01*
X162640419Y-118761904D02*
X162735657Y-118809523D01*
X162735657Y-118809523D02*
X163545180Y-118809523D01*
X163449942Y-119238095D02*
X163497561Y-119285714D01*
X163497561Y-119285714D02*
X163545180Y-119380952D01*
X163545180Y-119380952D02*
X163545180Y-119619047D01*
X163545180Y-119619047D02*
X163497561Y-119714285D01*
X163497561Y-119714285D02*
X163449942Y-119761904D01*
X163449942Y-119761904D02*
X163354704Y-119809523D01*
X163354704Y-119809523D02*
X163259466Y-119809523D01*
X163259466Y-119809523D02*
X163116609Y-119761904D01*
X163116609Y-119761904D02*
X162545180Y-119190476D01*
X162545180Y-119190476D02*
X162545180Y-119809523D01*
X116629819Y-100336904D02*
X117439342Y-100336904D01*
X117439342Y-100336904D02*
X117534580Y-100289285D01*
X117534580Y-100289285D02*
X117582200Y-100241666D01*
X117582200Y-100241666D02*
X117629819Y-100146428D01*
X117629819Y-100146428D02*
X117629819Y-99955952D01*
X117629819Y-99955952D02*
X117582200Y-99860714D01*
X117582200Y-99860714D02*
X117534580Y-99813095D01*
X117534580Y-99813095D02*
X117439342Y-99765476D01*
X117439342Y-99765476D02*
X116629819Y-99765476D01*
X117629819Y-98765476D02*
X117629819Y-99336904D01*
X117629819Y-99051190D02*
X116629819Y-99051190D01*
X116629819Y-99051190D02*
X116772676Y-99146428D01*
X116772676Y-99146428D02*
X116867914Y-99241666D01*
X116867914Y-99241666D02*
X116915533Y-99336904D01*
D11*
%TO.C,J6*%
X147870000Y-105170000D02*
X147870000Y-106500000D01*
X146540000Y-105170000D02*
X147870000Y-105170000D01*
X145270000Y-105170000D02*
X140130000Y-105170000D01*
X145270000Y-105170000D02*
X145270000Y-107830000D01*
X140130000Y-105170000D02*
X140130000Y-107830000D01*
X145270000Y-107830000D02*
X140130000Y-107830000D01*
%TO.C,J5*%
X178050000Y-84330000D02*
X178050000Y-83000000D01*
X179380000Y-84330000D02*
X178050000Y-84330000D01*
X180650000Y-84330000D02*
X193410000Y-84330000D01*
X180650000Y-84330000D02*
X180650000Y-81670000D01*
X193410000Y-84330000D02*
X193410000Y-81670000D01*
X180650000Y-81670000D02*
X193410000Y-81670000D01*
%TO.C,J4*%
X170330000Y-54170000D02*
X170330000Y-55500000D01*
X169000000Y-54170000D02*
X170330000Y-54170000D01*
X167730000Y-54170000D02*
X149890000Y-54170000D01*
X167730000Y-54170000D02*
X167730000Y-56830000D01*
X149890000Y-54170000D02*
X149890000Y-56830000D01*
X167730000Y-56830000D02*
X149890000Y-56830000D01*
%TO.C,U3*%
X146630000Y-51070000D02*
X121230000Y-51070000D01*
X121230000Y-66310000D01*
X146630000Y-66310000D01*
X146630000Y-51070000D01*
%TO.C,J1*%
X185110000Y-103350000D02*
X192910000Y-103350000D01*
X185110000Y-109400000D02*
X185110000Y-103350000D01*
X186460000Y-108290000D02*
X191540000Y-108290000D01*
X186460000Y-109300000D02*
X186460000Y-108290000D01*
X191540000Y-108290000D02*
X191540000Y-109300000D01*
X192910000Y-103350000D02*
X192910000Y-109400000D01*
X192910000Y-109400000D02*
X185110000Y-109400000D01*
%TO.C,J3*%
X102700000Y-51442500D02*
X117400000Y-51442500D01*
X102700000Y-60642500D02*
X102700000Y-51442500D01*
X111500000Y-60642500D02*
X102700000Y-60642500D01*
X116550000Y-51242500D02*
X117600000Y-51242500D01*
X117400000Y-51442500D02*
X117400000Y-54042500D01*
X117400000Y-57942500D02*
X117400000Y-60642500D01*
X117400000Y-60642500D02*
X115500000Y-60642500D01*
X117600000Y-52292500D02*
X117600000Y-51242500D01*
%TO.C,SW1*%
X106860000Y-111150000D02*
X106860000Y-112460000D01*
X106860000Y-111150000D02*
X108243000Y-111150000D01*
X107100000Y-111390000D02*
X107100000Y-112460000D01*
X107100000Y-111390000D02*
X113921000Y-111390000D01*
X107100000Y-114540000D02*
X107100000Y-115051000D01*
X107100000Y-117030000D02*
X107100000Y-118150000D01*
X107100000Y-118150000D02*
X113921000Y-118150000D01*
X108700000Y-112865000D02*
X108700000Y-114135000D01*
X108700000Y-112985000D02*
X109906667Y-112985000D01*
X108700000Y-113105000D02*
X109906667Y-113105000D01*
X108700000Y-113225000D02*
X109906667Y-113225000D01*
X108700000Y-113345000D02*
X109906667Y-113345000D01*
X108700000Y-113465000D02*
X109906667Y-113465000D01*
X108700000Y-113585000D02*
X109906667Y-113585000D01*
X108700000Y-113705000D02*
X109906667Y-113705000D01*
X108700000Y-113825000D02*
X109906667Y-113825000D01*
X108700000Y-113945000D02*
X109906667Y-113945000D01*
X108700000Y-114065000D02*
X109906667Y-114065000D01*
X108700000Y-114135000D02*
X112320000Y-114135000D01*
X108700000Y-115405000D02*
X108700000Y-116675000D01*
X108700000Y-115525000D02*
X109906667Y-115525000D01*
X108700000Y-115645000D02*
X109906667Y-115645000D01*
X108700000Y-115765000D02*
X109906667Y-115765000D01*
X108700000Y-115885000D02*
X109906667Y-115885000D01*
X108700000Y-116005000D02*
X109906667Y-116005000D01*
X108700000Y-116125000D02*
X109906667Y-116125000D01*
X108700000Y-116245000D02*
X109906667Y-116245000D01*
X108700000Y-116365000D02*
X109906667Y-116365000D01*
X108700000Y-116485000D02*
X109906667Y-116485000D01*
X108700000Y-116605000D02*
X109906667Y-116605000D01*
X108700000Y-116675000D02*
X112320000Y-116675000D01*
X109906667Y-112865000D02*
X109906667Y-114135000D01*
X109906667Y-115405000D02*
X109906667Y-116675000D01*
X112320000Y-112865000D02*
X108700000Y-112865000D01*
X112320000Y-114135000D02*
X112320000Y-112865000D01*
X112320000Y-115405000D02*
X108700000Y-115405000D01*
X112320000Y-116675000D02*
X112320000Y-115405000D01*
X113921000Y-111390000D02*
X113921000Y-112510000D01*
X113921000Y-114490000D02*
X113921000Y-115051000D01*
X113921000Y-117030000D02*
X113921000Y-118150000D01*
%TO.C,BZ1*%
X177729216Y-120999999D02*
G75*
G02*
X177729216Y-118000000I6400000J1499999D01*
G01*
X190359216Y-119500000D02*
G75*
G02*
X177899216Y-119500000I-6230000J0D01*
G01*
X177899216Y-119500000D02*
G75*
G02*
X190359216Y-119500000I6230000J0D01*
G01*
%TO.C,BT1*%
X111500000Y-129450000D02*
X189500000Y-129450000D01*
X111500000Y-149550000D02*
X111500000Y-129450000D01*
X189500000Y-129450000D02*
X189500000Y-149550000D01*
X189500000Y-149550000D02*
X111500000Y-149550000D01*
%TO.C,J2*%
X163370000Y-105670000D02*
X164700000Y-105670000D01*
X163370000Y-107000000D02*
X163370000Y-105670000D01*
X165970000Y-105670000D02*
X173650000Y-105670000D01*
X165970000Y-108330000D02*
X165970000Y-105670000D01*
X165970000Y-108330000D02*
X173650000Y-108330000D01*
X173650000Y-108330000D02*
X173650000Y-105670000D01*
%TO.C,U2*%
X172660000Y-110110000D02*
X151070000Y-110110000D01*
X151070000Y-127890000D01*
X172660000Y-127890000D01*
X172660000Y-110110000D01*
D12*
%TO.C,U1*%
X129120000Y-103070000D02*
G75*
G02*
X128920000Y-103070000I-100000J0D01*
G01*
X128920000Y-103070000D02*
G75*
G02*
X129120000Y-103070000I100000J0D01*
G01*
D13*
X170010000Y-102500000D02*
X170010000Y-97130000D01*
X170010000Y-102500000D02*
X119060000Y-102500000D01*
X170010000Y-102500000D02*
X119060000Y-102500000D01*
X170010000Y-97130000D02*
X170010000Y-79440000D01*
X170010000Y-79440000D02*
X170010000Y-73990000D01*
X170010000Y-73990000D02*
X170010000Y-102500000D01*
X119060000Y-102500000D02*
X119060000Y-91431000D01*
X119060000Y-102500000D02*
X119060000Y-73990000D01*
X119060000Y-91431000D02*
X119060000Y-84720000D01*
X119060000Y-84720000D02*
X119060000Y-73990000D01*
X119060000Y-73990000D02*
X170010000Y-73990000D01*
X119060000Y-73990000D02*
X170010000Y-73990000D01*
%TD*%
M02*
