M48
; DRILL file {KiCad 8.0.4} date 2024-09-12T20:04:47-0500
; FORMAT={-:-/ absolute / inch / decimal}
; #@! TF.CreationDate,2024-09-12T20:04:47-05:00
; #@! TF.GenerationSoftware,Kicad,Pcbnew,8.0.4
; #@! TF.FileFunction,Plated,1,2,PTH
FMAT,2
INCH
; #@! TA.AperFunction,Plated,PTH,ViaDrill
T1C0.0256
; #@! TA.AperFunction,Plated,PTH,ComponentDrill
T2C0.0300
; #@! TA.AperFunction,Plated,PTH,ComponentDrill
T3C0.0315
; #@! TA.AperFunction,Plated,PTH,ComponentDrill
T4C0.0394
; #@! TA.AperFunction,Plated,PTH,ComponentDrill
T5C0.0402
; #@! TA.AperFunction,Plated,PTH,ComponentDrill
T6C0.0787
%
G90
G05
T1
X5.374Y-3.9173
X5.374Y-4.1929
X6.0433Y-3.937
X6.1614Y-4.0551
X7.1063Y-3.563
X7.1063Y-3.8976
X7.2441Y-3.0906
X7.3819Y-4.1535
X7.4213Y-2.9528
X7.5197Y-4.2913
T2
X4.8228Y-2.0606
X4.8228Y-2.1606
X4.8228Y-2.2606
X4.8228Y-2.3606
X4.8228Y-2.4606
X4.8228Y-2.5606
X5.9173Y-4.2106
X5.9173Y-4.9606
X6.0173Y-4.2106
X6.0173Y-4.9606
X6.3173Y-4.2106
X6.4173Y-4.2106
X6.4173Y-4.9606
X6.5173Y-4.2106
X6.5173Y-4.9606
T3
X4.311Y-4.4685
X4.311Y-4.5685
X4.611Y-4.4685
X4.611Y-4.5685
T4
X6.5339Y-4.0748
X6.6339Y-4.0748
X6.7339Y-4.0748
X6.8339Y-4.0748
X6.8488Y-4.7028
X7.0457Y-4.7028
X7.1181Y-3.2677
X7.2181Y-3.2677
X7.3181Y-3.2677
X7.4181Y-3.2677
X7.5181Y-3.2677
X7.6181Y-3.2677
T5
X5.0795Y-2.7559
X5.0795Y-3.7559
X5.1795Y-2.7559
X5.1795Y-3.7559
X5.2795Y-2.7559
X5.2795Y-3.7559
X5.3795Y-2.7559
X5.3795Y-3.7559
X5.4795Y-2.7559
X5.4795Y-3.7559
X5.5795Y-2.7559
X5.5795Y-3.7559
X5.6795Y-2.7559
X5.6795Y-3.7559
X5.7795Y-2.7559
X5.7795Y-3.7559
X5.8795Y-2.7559
X5.8795Y-3.7559
X5.9795Y-2.7559
X5.9795Y-3.7559
X6.0795Y-2.7559
X6.0795Y-3.7559
X6.1795Y-2.7559
X6.1795Y-3.7559
X6.2795Y-2.7559
X6.2795Y-3.7559
X6.3795Y-2.7559
X6.3795Y-3.7559
X6.4795Y-2.7559
X6.4795Y-3.7559
X7.4378Y-3.9764
X7.5378Y-3.9764
X7.6378Y-3.9764
T6
X4.5079Y-5.4528
X7.3425Y-5.4528
T4
G00X4.3504Y-2.167
M15
G01X4.3504Y-2.2458
M16
G05
G00X4.4291Y-2.3914
M15
G01X4.5079Y-2.3914
M16
G05
G00X4.5866Y-2.167
M15
G01X4.5866Y-2.2458
M16
G05
M30
