%TF.GenerationSoftware,KiCad,Pcbnew,8.0.4*%
%TF.CreationDate,2024-09-12T20:04:55-05:00*%
%TF.ProjectId,PCB 1,50434220-312e-46b6-9963-61645f706362,rev?*%
%TF.SameCoordinates,Original*%
%TF.FileFunction,Soldermask,Bot*%
%TF.FilePolarity,Negative*%
%FSLAX46Y46*%
G04 Gerber Fmt 4.6, Leading zero omitted, Abs format (unit mm)*
G04 Created by KiCad (PCBNEW 8.0.4) date 2024-09-12 20:04:55*
%MOMM*%
%LPD*%
G01*
G04 APERTURE LIST*
G04 Aperture macros list*
%AMRoundRect*
0 Rectangle with rounded corners*
0 $1 Rounding radius*
0 $2 $3 $4 $5 $6 $7 $8 $9 X,Y pos of 4 corners*
0 Add a 4 corners polygon primitive as box body*
4,1,4,$2,$3,$4,$5,$6,$7,$8,$9,$2,$3,0*
0 Add four circle primitives for the rounded corners*
1,1,$1+$1,$2,$3*
1,1,$1+$1,$4,$5*
1,1,$1+$1,$6,$7*
1,1,$1+$1,$8,$9*
0 Add four rect primitives between the rounded corners*
20,1,$1+$1,$2,$3,$4,$5,0*
20,1,$1+$1,$4,$5,$6,$7,0*
20,1,$1+$1,$6,$7,$8,$9,0*
20,1,$1+$1,$8,$9,$2,$3,0*%
G04 Aperture macros list end*
%ADD10R,1.700000X1.700000*%
%ADD11O,1.700000X1.700000*%
%ADD12C,1.524000*%
%ADD13R,1.730000X2.030000*%
%ADD14O,1.730000X2.030000*%
%ADD15R,3.500000X3.500000*%
%ADD16RoundRect,0.750000X-0.750000X-1.000000X0.750000X-1.000000X0.750000X1.000000X-0.750000X1.000000X0*%
%ADD17RoundRect,0.875000X-0.875000X-0.875000X0.875000X-0.875000X0.875000X0.875000X-0.875000X0.875000X0*%
%ADD18R,1.600000X1.600000*%
%ADD19O,1.600000X1.600000*%
%ADD20C,3.200000*%
%ADD21R,2.000000X2.000000*%
%ADD22C,2.000000*%
%ADD23C,3.500000*%
%ADD24C,3.000000*%
%ADD25RoundRect,0.102000X1.000000X-1.000000X1.000000X1.000000X-1.000000X1.000000X-1.000000X-1.000000X0*%
%ADD26C,2.204000*%
G04 APERTURE END LIST*
D10*
%TO.C,J5*%
X180800000Y-83000000D03*
D11*
X183340000Y-83000000D03*
X185880000Y-83000000D03*
X188420000Y-83000000D03*
X190960000Y-83000000D03*
X193500000Y-83000000D03*
%TD*%
D12*
%TO.C,U3*%
X122500000Y-52340000D03*
X122500000Y-54880000D03*
X122500000Y-57420000D03*
X122500000Y-59960000D03*
X122500000Y-62500000D03*
X122500000Y-65040000D03*
%TD*%
D13*
%TO.C,J1*%
X188920000Y-101000000D03*
D14*
X191460000Y-101000000D03*
X194000000Y-101000000D03*
%TD*%
D12*
%TO.C,U2*%
X165540000Y-106950000D03*
X163000000Y-106950000D03*
X160460000Y-106950000D03*
X152840000Y-106950000D03*
X150300000Y-106950000D03*
X150300000Y-126000000D03*
X152840000Y-126000000D03*
X163000000Y-126000000D03*
X165540000Y-126000000D03*
%TD*%
D15*
%TO.C,J3*%
X116500000Y-56042500D03*
D16*
X110500000Y-56042500D03*
D17*
X113500000Y-60742500D03*
%TD*%
D18*
%TO.C,SW1*%
X109500000Y-113500000D03*
D19*
X109500000Y-116040000D03*
X117120000Y-116040000D03*
X117120000Y-113500000D03*
%TD*%
D20*
%TO.C,REF\u002A\u002A*%
X104000000Y-145500000D03*
%TD*%
%TO.C,REF\u002A\u002A*%
X195500000Y-55000000D03*
%TD*%
D21*
%TO.C,BZ1*%
X173960000Y-119450000D03*
D22*
X178960000Y-119450000D03*
%TD*%
D20*
%TO.C,BT1*%
X123145000Y-138500000D03*
X178755000Y-138500000D03*
D15*
X114500000Y-138500000D03*
D23*
X186500000Y-138500000D03*
%TD*%
D10*
%TO.C,J2*%
X165960000Y-103500000D03*
D11*
X168500000Y-103500000D03*
X171040000Y-103500000D03*
X173580000Y-103500000D03*
%TD*%
D24*
%TO.C,U1*%
X121060000Y-94980000D03*
X168010000Y-94980000D03*
X121060000Y-70470000D03*
X168010000Y-70470000D03*
D25*
X129020000Y-95400000D03*
D26*
X131560000Y-95400000D03*
X134100000Y-95400000D03*
X136640000Y-95400000D03*
X139180000Y-95400000D03*
X141720000Y-95400000D03*
X144260000Y-95400000D03*
X146800000Y-95400000D03*
X149340000Y-95400000D03*
X151880000Y-95400000D03*
X154420000Y-95400000D03*
X156960000Y-95400000D03*
X159500000Y-95400000D03*
X162040000Y-95400000D03*
X164580000Y-95400000D03*
X164580000Y-70000000D03*
X162040000Y-70000000D03*
X159500000Y-70000000D03*
X156960000Y-70000000D03*
X154420000Y-70000000D03*
X151880000Y-70000000D03*
X149340000Y-70000000D03*
X146800000Y-70000000D03*
X144260000Y-70000000D03*
X141720000Y-70000000D03*
X139180000Y-70000000D03*
X136640000Y-70000000D03*
X134100000Y-70000000D03*
X131560000Y-70000000D03*
X129020000Y-70000000D03*
%TD*%
M02*
